<svg xmlns="http://www.w3.org/2000/svg" width="41.246" height="33.5" viewBox="0 0 41.246 33.5">
  <path id="Icon_awesome-twitter" data-name="Icon awesome-twitter" d="M37.007,11.729c.026.366.026.733.026,1.1C37.033,24,28.527,36.88,12.981,36.88A23.889,23.889,0,0,1,0,33.086a17.485,17.485,0,0,0,2.041.1,16.93,16.93,0,0,0,10.495-3.612,8.468,8.468,0,0,1-7.9-5.862,10.661,10.661,0,0,0,1.6.131,8.941,8.941,0,0,0,2.225-.288,8.455,8.455,0,0,1-6.779-8.3v-.1A8.513,8.513,0,0,0,5.5,16.231,8.466,8.466,0,0,1,2.879,4.925a24.029,24.029,0,0,0,17.43,8.846,9.543,9.543,0,0,1-.209-1.937A8.461,8.461,0,0,1,34.73,6.05a16.643,16.643,0,0,0,5.365-2.041,8.431,8.431,0,0,1-3.716,4.659,16.947,16.947,0,0,0,4.868-1.309,18.172,18.172,0,0,1-4.24,4.371Z" transform="translate(0 -3.381)" fill="#fdfe00"/>
</svg>
