<svg xmlns="http://www.w3.org/2000/svg" width="43.417" height="28.949" viewBox="0 0 43.417 28.949">
  <path id="Icon_awesome-spotify" data-name="Icon awesome-spotify" d="M38.834,38.61a2.345,2.345,0,0,1-1.315-.443c-7.671-4.622-16.595-4.819-25.409-3.012a7.938,7.938,0,0,1-1.463.32A1.914,1.914,0,0,1,8.7,33.533a1.948,1.948,0,0,1,1.672-2.065c10.068-2.225,20.356-2.028,29.133,3.221A2.079,2.079,0,0,1,40.7,36.717a1.857,1.857,0,0,1-1.868,1.893Zm3.307-8.064a3.035,3.035,0,0,1-1.512-.516c-7.683-4.548-19.139-6.38-29.33-3.614a5.063,5.063,0,0,1-1.463.32,2.387,2.387,0,0,1-2.385-2.385,2.419,2.419,0,0,1,1.905-2.545,41.347,41.347,0,0,1,12.022-1.672,43.031,43.031,0,0,1,21.758,5.593,2.563,2.563,0,0,1,1.389,2.422A2.382,2.382,0,0,1,42.141,30.546Zm3.811-9.367a2.827,2.827,0,0,1-1.586-.479c-8.752-5.224-24.4-6.478-34.53-3.651a5.839,5.839,0,0,1-1.586.32,2.837,2.837,0,0,1-2.864-2.9,2.9,2.9,0,0,1,2.139-2.938A51.52,51.52,0,0,1,21.969,9.661c8.974,0,18.377,1.868,25.249,5.876A2.886,2.886,0,0,1,48.8,18.315a2.848,2.848,0,0,1-2.852,2.864Z" transform="translate(-5.386 -9.661)" fill="#00ff01"/>
</svg>
