<svg xmlns="http://www.w3.org/2000/svg" width="33.948" height="39.076" viewBox="0 0 33.948 39.076">
  <path id="Icon_simple-tiktok" data-name="Icon simple-tiktok" d="M20.2.033C22.331,0,24.447.016,26.564,0a10.141,10.141,0,0,0,2.849,6.789,11.482,11.482,0,0,0,6.9,2.914v6.561a17.427,17.427,0,0,1-6.838-1.579,20.116,20.116,0,0,1-2.638-1.514c-.016,4.754.016,9.508-.033,14.246a12.436,12.436,0,0,1-2.2,6.415,12.13,12.13,0,0,1-9.622,5.226,11.872,11.872,0,0,1-6.643-1.677,12.278,12.278,0,0,1-5.943-9.3c-.033-.814-.049-1.628-.016-2.426A12.257,12.257,0,0,1,16.6,14.783c.033,2.41-.065,4.819-.065,7.229A5.586,5.586,0,0,0,9.4,25.464a6.459,6.459,0,0,0-.228,2.621,5.541,5.541,0,0,0,5.7,4.673,5.47,5.47,0,0,0,4.51-2.621,3.757,3.757,0,0,0,.668-1.726c.163-2.914.1-5.812.114-8.727.016-6.561-.016-13.106.033-19.651Z" transform="translate(-2.369)" fill="#fd01fc"/>
</svg>
