<svg xmlns="http://www.w3.org/2000/svg" width="39.075" height="39.076" viewBox="0 0 39.075 39.076">
  <path id="Icon_simple-instagram" data-name="Icon simple-instagram" d="M19.538,0c-5.308,0-5.97.024-8.054.117a14.407,14.407,0,0,0-4.743.909A9.568,9.568,0,0,0,3.279,3.279,9.533,9.533,0,0,0,1.026,6.741a14.365,14.365,0,0,0-.909,4.743C.02,13.567,0,14.23,0,19.538s.024,5.97.117,8.054a14.416,14.416,0,0,0,.909,4.743A9.581,9.581,0,0,0,3.279,35.8,9.554,9.554,0,0,0,6.741,38.05a14.424,14.424,0,0,0,4.743.909c2.084.1,2.747.117,8.054.117s5.97-.024,8.054-.117a14.458,14.458,0,0,0,4.743-.909,9.985,9.985,0,0,0,5.715-5.715,14.416,14.416,0,0,0,.909-4.743c.1-2.084.117-2.747.117-8.054s-.024-5.97-.117-8.054a14.449,14.449,0,0,0-.909-4.743A9.589,9.589,0,0,0,35.8,3.279a9.519,9.519,0,0,0-3.461-2.253A14.373,14.373,0,0,0,27.592.117C25.508.02,24.845,0,19.538,0Zm0,3.517c5.215,0,5.837.026,7.9.116a10.764,10.764,0,0,1,3.626.676,6.429,6.429,0,0,1,3.709,3.707,10.787,10.787,0,0,1,.672,3.626c.093,2.061.114,2.68.114,7.9s-.024,5.837-.12,7.9a11,11,0,0,1-.685,3.626,6.2,6.2,0,0,1-1.464,2.25,6.1,6.1,0,0,1-2.247,1.459,10.867,10.867,0,0,1-3.639.672c-2.074.093-2.685.114-7.911.114s-5.839-.024-7.911-.12a11.078,11.078,0,0,1-3.641-.685,6.05,6.05,0,0,1-2.245-1.464,5.933,5.933,0,0,1-1.465-2.247A11.088,11.088,0,0,1,3.543,27.4c-.073-2.051-.1-2.685-.1-7.887s.026-5.839.1-7.914a11.075,11.075,0,0,1,.684-3.637A5.792,5.792,0,0,1,5.692,5.713,5.779,5.779,0,0,1,7.937,4.251a10.814,10.814,0,0,1,3.616-.685c2.076-.073,2.686-.1,7.911-.1l.073.049Zm0,5.988A10.033,10.033,0,1,0,29.57,19.538,10.032,10.032,0,0,0,19.538,9.505Zm0,16.545a6.513,6.513,0,1,1,6.513-6.513A6.511,6.511,0,0,1,19.538,26.05ZM32.312,9.109a2.345,2.345,0,1,1-2.345-2.343A2.346,2.346,0,0,1,32.312,9.109Z" fill="#fd01fc"/>
</svg>
