<svg id="Component_7_1" data-name="Component 7 – 1" xmlns="http://www.w3.org/2000/svg" width="201.769" height="91.359" viewBox="0 0 201.769 91.359">
  <path id="Path_17" data-name="Path 17" d="M4.663,56.287c3.571,3.54,9.437,2.754,19.93,8.742s6.381,19.56,20.16,22.037S61.2,77.729,71.482,77.729,82.009,91.966,97.859,92.155s15.413-13.118,26.356-14.427,12.7,12.308,25.824,10.337,11.5-9.891,19.953-16.392,14.037-1.425,24.215-6.774,10.806-18.969,3.636-25.629c-6.389-7.3-11.211-2.967-17.332-10.2S178.4,12.184,167.248,8.756s-12.921,8.6-28.937,7.012S124.674.55,107.427.8,92.353,14.9,78.165,15.767,56.434,2.29,42.243,6.794,31.549,20.286,25.594,26.7c-5.555,7.514-10.066,3.205-19.067,8.85S1.093,52.747,4.663,56.287Z" transform="translate(202.629 92.157) rotate(-180)" fill="#00fefc"/>
  <text id="read_more" data-name="read more" transform="translate(100.586 54)" font-size="22" font-family="SpaceGrotesk-Bold, SpaceGrotesk" font-weight="700" letter-spacing="0.02em"><tspan x="-62.084" y="0">READ MORE</tspan></text>
</svg>
